<?xml version="1.0" encoding="utf-8"?>
<!-- Generator: Adobe Illustrator 15.0.2, SVG Export Plug-In  -->
<!DOCTYPE svg PUBLIC "-//W3C//DTD SVG 1.1//EN" "http://www.w3.org/Graphics/SVG/1.1/DTD/svg11.dtd" [
	<!ENTITY ns_flows "http://ns.adobe.com/Flows/1.0/">
]>
<svg version="1.1"
	 xmlns="http://www.w3.org/2000/svg" xmlns:xlink="http://www.w3.org/1999/xlink" xmlns:a="http://ns.adobe.com/AdobeSVGViewerExtensions/3.0/"
	 x="0px" y="0px" width="376px" height="36px" viewBox="-0.684 -0.553 376 36"
	 overflow="visible" enable-background="new -0.684 -0.553 376 36" xml:space="preserve">
<defs>
</defs>
<path fill="#60A9C3" d="M281.955,33.822L263.876,7.007c0,0,0.42,26.161,0.42,26.815h-4.158V0.841h4.158l17.846,26.441
	c0,0-0.188-25.414-0.188-26.441h3.972v32.981H281.955z"/>
<path fill="#60A9C3" d="M309.424,34.663c-8.55,0-16.491-5.56-16.491-17.379C292.933,5.231,301.109,0,309.565,0
	c10.043,0,16.583,7.054,16.583,17.051C326.148,25.087,321.757,34.663,309.424,34.663z M309.658,31.206
	c6.54,0,11.726-4.392,11.726-14.155c0-6.54-2.943-13.501-11.818-13.501c-8.737,0-11.866,6.914-11.866,13.781
	C297.699,25.834,302.229,31.206,309.658,31.206z"/>
<path fill="#60A9C3" d="M364.316,33.822h-4.299l-8.688-27.329l-8.409,27.329h-4.391L328.39,0.841h4.626l7.802,27.329l8.361-27.329
	h4.299l8.689,27.329l7.708-27.329h4.531L364.316,33.822z"/>
<path fill="#919191" d="M115.561,4.458c0.916-0.977,1.525-1.707,3.171-2.502c1.464-0.609,3.539-1.158,5.794-1.158
	c1.893,0,4.025,0.367,5.674,1.279c3.353,1.77,4.207,4.637,4.207,9.576v21.774h-9.332V15.495c0-2.864-0.06-3.902-0.426-4.756
	c-0.732-1.707-2.378-2.441-4.207-2.441c-4.942,0-4.942,3.968-4.942,7.932v17.198h-9.393V1.651h9.454V4.458z"/>
<path fill="#919191" d="M170.573,25.315c-1.097,1.646-2.195,3.233-3.844,4.76c-2.743,2.561-6.89,4.512-12.013,4.512
	c-9.455,0-16.102-6.038-16.102-16.469c0-7.684,3.782-17.564,16.345-17.564c1.891,0,7.379,0.186,11.466,4.574
	c4.147,4.452,4.391,10.676,4.513,14.271h-22.75c-0.061,3.966,2.198,7.93,7.257,7.93c5.124,0,6.893-3.354,8.052-5.613L170.573,25.315
	z M161.241,13.544c-0.183-1.341-0.425-3.109-1.767-4.512c-1.16-1.159-2.929-1.769-4.576-1.769c-2.256,0-3.842,1.097-4.756,2.071
	c-1.282,1.404-1.586,2.868-1.891,4.209H161.241z"/>
<path fill="#919191" d="M181.405,1.589l4.451,22.264l4.82-22.264h10l4.331,22.448l5.002-22.448h9.698l-9.515,31.839h-10.187
	l-4.698-21.225l-4.755,21.225h-10.308l-8.721-31.839H181.405z"/>
<path fill="#919191" d="M225.194,22.693c2.562,2.5,5.731,4.392,9.271,4.392c2.257,0,5.671-0.731,5.671-3.109
	c0-1.1-0.671-1.525-1.22-1.829c-1.402-0.735-3.598-0.918-5.428-1.221c-1.401-0.244-2.866-0.549-4.27-0.977
	c-1.951-0.55-3.903-1.343-5.306-2.746c-1.401-1.399-2.379-3.599-2.379-5.977c0-5.243,4.514-10.673,13.418-10.673
	c7.503,0,12.016,3.232,14.212,4.758l-5.795,5.367c-2.989-2.318-5.795-3.174-7.989-3.174c-3.66,0-4.514,1.466-4.514,2.381
	c0,1.829,2.012,2.195,5.062,2.745c6.404,1.158,13.845,2.864,13.845,10.429c0,7.502-7.563,11.162-15.064,11.162
	c-8.843,0-13.42-4.269-15.433-6.16L225.194,22.693z"/>
<path fill="#919191" d="M115.561,4.458c0.916-0.977,1.525-1.707,3.171-2.502c1.464-0.609,3.539-1.158,5.794-1.158
	c1.893,0,4.025,0.367,5.674,1.279c3.353,1.77,4.207,4.637,4.207,9.576v21.774h-9.332V15.495c0-2.864-0.06-3.902-0.426-4.756
	c-0.732-1.707-2.378-2.441-4.207-2.441c-4.942,0-4.942,3.968-4.942,7.932v17.198h-9.393V1.651h9.454V4.458z"/>
<path fill="#919191" d="M170.573,25.315c-1.097,1.646-2.195,3.233-3.844,4.76c-2.743,2.561-6.89,4.512-12.013,4.512
	c-9.455,0-16.102-6.038-16.102-16.469c0-7.684,3.782-17.564,16.345-17.564c1.891,0,7.379,0.186,11.466,4.574
	c4.147,4.452,4.391,10.676,4.513,14.271h-22.75c-0.061,3.966,2.198,7.93,7.257,7.93c5.124,0,6.893-3.354,8.052-5.613L170.573,25.315
	z M161.241,13.544c-0.183-1.341-0.425-3.109-1.767-4.512c-1.16-1.159-2.929-1.769-4.576-1.769c-2.256,0-3.842,1.097-4.756,2.071
	c-1.282,1.404-1.586,2.868-1.891,4.209H161.241z"/>
<path fill="#919191" d="M181.405,1.589l4.451,22.264l4.82-22.264h10l4.331,22.448l5.002-22.448h9.698l-9.515,31.839h-10.187
	l-4.698-21.225l-4.755,21.225h-10.308l-8.721-31.839H181.405z"/>
<path fill="#919191" d="M225.194,22.693c2.562,2.5,5.731,4.392,9.271,4.392c2.257,0,5.671-0.731,5.671-3.109
	c0-1.1-0.671-1.525-1.22-1.829c-1.402-0.735-3.598-0.918-5.428-1.221c-1.401-0.244-2.866-0.549-4.27-0.977
	c-1.951-0.55-3.903-1.343-5.306-2.746c-1.401-1.399-2.379-3.599-2.379-5.977c0-5.243,4.514-10.673,13.418-10.673
	c7.503,0,12.016,3.232,14.212,4.758l-5.795,5.367c-2.989-2.318-5.795-3.174-7.989-3.174c-3.66,0-4.514,1.466-4.514,2.381
	c0,1.829,2.012,2.195,5.062,2.745c6.404,1.158,13.845,2.864,13.845,10.429c0,7.502-7.563,11.162-15.064,11.162
	c-8.843,0-13.42-4.269-15.433-6.16L225.194,22.693z"/>
<path fill="#919191" d="M35.427,1.376V33.44H27.75l0.502-22.844l0.088-3.225l-0.272,1.133c-0.407,1.818-0.453,2.045-0.818,3.406
	L21.21,33.44h-6.902L8.495,12.821l-1.41-5.724c0.137,2.545,0.137,3.087,0.273,6.132L7.767,33.44H0V1.376h11.716l4.909,17.985
	l1.132,5.131c0.458-2.226,0.501-2.451,0.865-3.952l5.131-19.164H35.427z"/>
<path fill="#919191" d="M42.092,1.376h12.899c5.268,0,9.946,0,12.759,4.041c1.228,1.817,1.818,4.404,1.818,6.586
	c0,1.771-0.364,3.498-1.09,4.997c-2.771,5.722-8.676,5.858-13.034,5.948h-5.314V33.44h-8.039V1.376z M50.131,7.279V17h4.814
	c2.998,0,6.632-0.091,6.632-5.043c0-4.678-4.044-4.678-6.36-4.678H50.131z"/>
<path fill="#919191" d="M73.364,1.376h14.443c3.358,0.045,7.539,0.09,10.489,3.269c1.5,1.683,2.546,4.222,2.546,7.131
	c0,6.452-4.407,8.04-6.586,8.858l7.403,12.807H92.8l-6.356-11.444h-5.042V33.44h-8.037V1.376z M81.401,7.372v8.674h6.633
	c1.133-0.045,4.813-0.139,4.813-4.406c0-4.088-2.951-4.223-4.633-4.268H81.401z"/>
</svg>
